<?xml version="1.0" encoding="UTF-8" standalone="no"?>
<!-- Created with Inkscape (http://www.inkscape.org/) -->

<svg
   width="53.710415mm"
   height="28.839582mm"
   viewBox="0 0 53.710415 28.839582"
   version="1.1"
   id="svg1"
   xml:space="preserve"
   inkscape:version="1.3.1 (9b9bdc1480, 2023-11-25, custom)"
   sodipodi:docname="fromage.svg"
   xmlns:inkscape="http://www.inkscape.org/namespaces/inkscape"
   xmlns:sodipodi="http://sodipodi.sourceforge.net/DTD/sodipodi-0.dtd"
   xmlns="http://www.w3.org/2000/svg"
   xmlns:svg="http://www.w3.org/2000/svg"><sodipodi:namedview
     id="namedview1"
     pagecolor="#ffffff"
     bordercolor="#000000"
     borderopacity="0.25"
     inkscape:showpageshadow="2"
     inkscape:pageopacity="0.0"
     inkscape:pagecheckerboard="0"
     inkscape:deskcolor="#d1d1d1"
     inkscape:document-units="mm"
     showguides="false"
     inkscape:zoom="4.4840764"
     inkscape:cx="92.549716"
     inkscape:cy="53.745738"
     inkscape:window-width="1854"
     inkscape:window-height="1011"
     inkscape:window-x="0"
     inkscape:window-y="0"
     inkscape:window-maximized="1"
     inkscape:current-layer="g1"><inkscape:page
       x="0"
       y="0"
       width="53.710415"
       height="28.839582"
       id="page1"
       margin="0"
       bleed="0" /></sodipodi:namedview><defs
     id="defs1" /><g
     inkscape:label="Calque 1"
     inkscape:groupmode="layer"
     id="layer1" /><g
     id="g1"
     inkscape:groupmode="layer"
     inkscape:label="1"
     transform="matrix(0.26458332,0,0,0.26458332,63.710417,0)"><g
       id="g2"
       transform="matrix(0.04672952,0,0,0.04672952,-206.88077,-12.085525)"><path
         id="path2"
         d="m 1841.28,694.42669 c -15.0534,6.62666 -31.68,10.36 -49.2134,10.36 -67.3066,0 -121.8533,-54.14667 -121.8533,-120.96 0,-28.2 9.8,-54.08 26.0933,-74.65333 -65.7866,-80.02667 -114.96,-132.28 -136.48,-141.44 -38.3466,-16.30666 -260.7093,-46.17333 -314.1053,5.48 -0.035,0.0267 -0.055,0.08 -0.088,0.12 -47.1987,31.12 -146.9067,191.48 -266.09599,409.21332 48.58129,18.86667 89.84669,52.17334 118.49469,94.58667 -0.033,0 -0.065,-0.0133 -0.099,-0.0133 C 1113.128,1217.8533 747.84531,1227.36 747.84531,1227.36 491.18932,1739.8667 237.22666,2304.2933 237.22666,2373.7733 c 0,121.08 1761.22664,157.88 2015.10664,32.2533 v 0 c 126.24,-34.9733 356.2533,-445.4133 356.2533,-505.2133 0,-113.7733 -453.3467,-790.5066 -767.3066,-1206.38661"
         style="fill:#fcce24;fill-opacity:1;fill-rule:nonzero;stroke:none;stroke-width:0.133333" /><path
         id="path3"
         d="m 1140.8626,1017.04 c 0,-51.79999 -15.8026,-99.89332 -42.8306,-139.90665 -0.033,0 -0.065,-0.0133 -0.099,-0.0133 15.195,340.73325 -350.08769,350.23995 -350.08769,350.23995 40.00267,26.1867 87.88534,41.4667 139.38267,41.4667 140.07862,0 253.63462,-112.7334 253.63462,-251.7867"
         style="fill:#fab80a;fill-opacity:1;fill-rule:nonzero;stroke:none;stroke-width:0.133333" /><path
         id="path4"
         d="m 1269.9866,1328.7867 c 0,42.88 -34.764,77.64 -77.6466,77.64 -42.884,0 -77.648,-34.76 -77.648,-77.64 0,-42.88 34.764,-77.6534 77.648,-77.6534 42.8826,0 77.6466,34.7734 77.6466,77.6534"
         style="fill:#fab80a;fill-opacity:1;fill-rule:nonzero;stroke:none;stroke-width:0.133333" /><path
         id="path5"
         d="m 1236.1373,504.30669 c 0,12.37333 -10.0333,22.41333 -22.4093,22.41333 -12.376,0 -22.4094,-10.04 -22.4094,-22.41333 0,-12.37333 10.0334,-22.41333 22.4094,-22.41333 12.376,0 22.4093,10.04 22.4093,22.41333"
         style="fill:#fab80a;fill-opacity:1;fill-rule:nonzero;stroke:none;stroke-width:0.133333" /><path
         id="path6"
         d="m 1490.9733,1472.6933 c 0,12.3734 -10.04,22.4 -22.4133,22.4 -12.3734,0 -22.4134,-10.0266 -22.4134,-22.4 0,-12.3866 10.04,-22.4133 22.4134,-22.4133 12.3733,0 22.4133,10.0267 22.4133,22.4133"
         style="fill:#fab80a;fill-opacity:1;fill-rule:nonzero;stroke:none;stroke-width:0.133333" /><path
         id="path7"
         d="m 1297.2973,1034.36 c 0,12.3733 -10.0333,22.4133 -22.4093,22.4133 -12.376,0 -22.408,-10.04 -22.408,-22.4133 0,-12.3733 10.032,-22.4133 22.408,-22.4133 12.376,0 22.4093,10.04 22.4093,22.4133"
         style="fill:#fab80a;fill-opacity:1;fill-rule:nonzero;stroke:none;stroke-width:0.133333" /><path
         id="path8"
         d="m 697.96398,1631.7067 c 0,12.3733 -10.03333,22.4 -22.40933,22.4 -12.376,0 -22.40933,-10.0267 -22.40933,-22.4 0,-12.3734 10.03333,-22.4134 22.40933,-22.4134 12.376,0 22.40933,10.04 22.40933,22.4134"
         style="fill:#fab80a;fill-opacity:1;fill-rule:nonzero;stroke:none;stroke-width:0.133333" /><path
         id="path9"
         d="m 2296.2799,1741.7867 c -28.5466,187.56 -228.04,117.7333 -228.04,117.7333 -146.6933,63.5867 -356.6133,-14.9333 -420.1866,-161.6267 -63.5733,-146.6933 14.6133,-345.1066 161.3067,-408.68 146.7066,-63.5866 530.1333,168.5734 486.9199,452.5734"
         style="fill:#fab80a;fill-opacity:1;fill-rule:nonzero;stroke:none;stroke-width:0.133333" /><path
         id="path10"
         d="m 1841.28,694.42669 c -15.0534,6.62666 -31.68,10.36 -49.2134,10.36 -67.3066,0 -121.8533,-54.14667 -121.8533,-120.96 0,-28.2 9.8,-54.08 26.0933,-74.65333 -65.7866,-80.02667 -114.96,-132.28 -136.48,-141.44 -38.3466,-16.30666 -260.7093,-46.17333 -314.1053,5.48 -0.035,0.0267 -0.055,0.08 -0.088,0.12 5.4973,-3.62667 10.3253,-5.6 14.3453,-5.6 61.864,0 305.0347,435.03999 538.7414,901.09334 7.1066,14.16 10.64,20.3866 10.64,20.3866 146.7066,-63.5866 530.1333,168.5734 486.9199,452.5734 -23.6933,155.6933 -165.08,134.04 -212.48,122.1866 117.3734,258.36 198.9334,460.5867 198.9334,509.8 0,11.76 -10.68,22.4933 -30.4,32.2533 v 0 c 126.24,-34.9733 356.2533,-445.4133 356.2533,-505.2133 0,-113.7733 -453.3467,-790.5066 -767.3066,-1206.38661"
         style="fill:#fab80a;fill-opacity:1;fill-rule:nonzero;stroke:none;stroke-width:0.133333" /><path
         id="path11"
         d="m 1913.6666,2123.36 c 0,57.6 -46.6933,104.2933 -104.3066,104.2933 -57.6,0 -104.2934,-46.6933 -104.2934,-104.2933 0,-57.6133 46.6934,-104.3067 104.2934,-104.3067 57.6133,0 104.3066,46.6934 104.3066,104.3067"
         style="fill:#fab80a;fill-opacity:1;fill-rule:nonzero;stroke:none;stroke-width:0.133333" /><path
         id="path12"
         d="m 1843.8266,2025 c 21.5334,19.1067 35.1867,46.9067 35.1867,77.9733 0,57.6 -46.7067,104.2933 -104.3067,104.2933 -12.0933,0 -23.6533,-2.16 -34.4533,-5.9466 18.4,16.3333 42.56,26.3333 69.1067,26.3333 57.6133,0 104.3066,-46.6933 104.3066,-104.2933 0,-45.52 -29.2,-84.12 -69.84,-98.36"
         style="fill:#f7960f;fill-opacity:1;fill-rule:nonzero;stroke:none;stroke-width:0.133333" /><path
         id="path13"
         d="m 1659.7066,1119.3067 c 0,72.8133 -59.0266,131.8266 -131.8266,131.8266 -72.8134,0 -131.8267,-59.0133 -131.8267,-131.8266 0,-72.8 59.0133,-131.81335 131.8267,-131.81335 72.8,0 131.8266,59.01335 131.8266,131.81335"
         style="fill:#fab80a;fill-opacity:1;fill-rule:nonzero;stroke:none;stroke-width:0.133333" /><path
         id="path14"
         d="m 1571.4266,995.01335 c 27.2267,24.14665 44.4667,59.27995 44.4667,98.53335 0,72.8 -59.0133,131.8266 -131.8133,131.8266 -15.2934,0 -29.9067,-2.7333 -43.56,-7.52 23.2666,20.64 53.8,33.28 87.36,33.28 72.8,0 131.8266,-59.0133 131.8266,-131.8133 0,-57.52 -36.9066,-106.3067 -88.28,-124.30665"
         style="fill:#f7960f;fill-opacity:1;fill-rule:nonzero;stroke:none;stroke-width:0.133333" /><path
         id="path15"
         d="m 1982.96,1056.7733 c 0,38.2667 -31.0134,69.2934 -69.2934,69.2934 -38.2666,0 -69.2933,-31.0267 -69.2933,-69.2934 0,-38.28 31.0267,-69.30662 69.2933,-69.30662 38.28,0 69.2934,31.02662 69.2934,69.30662"
         style="fill:#f89c0e;fill-opacity:1;fill-rule:nonzero;stroke:none;stroke-width:0.133333" /><path
         id="path16"
         d="m 1936.56,991.42668 c 14.3066,12.69332 23.3733,31.16002 23.3733,51.80002 0,38.2666 -31.0133,69.2933 -69.2933,69.2933 -8.0267,0 -15.72,-1.44 -22.8934,-3.9467 12.24,10.8534 28.28,17.4934 45.92,17.4934 38.28,0 69.2934,-31.0267 69.2934,-69.2934 0,-30.24 -19.3867,-55.88 -46.4,-65.34662"
         style="fill:#d76c11;fill-opacity:1;fill-rule:nonzero;stroke:none;stroke-width:0.133333" /><path
         id="path17"
         d="m 2448.7733,2076.4667 c 0,62.8666 -50.9734,113.8266 -113.8267,113.8266 -62.8667,0 -113.8267,-50.96 -113.8267,-113.8266 0,-62.8534 50.96,-113.8267 113.8267,-113.8267 62.8533,0 113.8267,50.9733 113.8267,113.8267"
         style="fill:#f89c0e;fill-opacity:1;fill-rule:nonzero;stroke:none;stroke-width:0.133333" /><path
         id="path18"
         d="m 2372.5466,1969.1333 c 23.5067,20.8534 38.4,51.2 38.4,85.0934 0,62.8666 -50.96,113.8266 -113.8267,113.8266 -13.2,0 -25.8133,-2.36 -37.6,-6.4933 20.0934,17.8266 46.4534,28.7333 75.4267,28.7333 62.8533,0 113.8267,-50.96 113.8267,-113.8133 0,-49.6667 -31.8667,-91.8 -76.2267,-107.3467"
         style="fill:#d76c11;fill-opacity:1;fill-rule:nonzero;stroke:none;stroke-width:0.133333" /><path
         id="path19"
         d="m 1738.72,853.24002 c 0,18.58666 -15.0667,33.65333 -33.6534,33.65333 -18.6,0 -33.6666,-15.06667 -33.6666,-33.65333 0,-18.6 15.0666,-33.66667 33.6666,-33.66667 18.5867,0 33.6534,15.06667 33.6534,33.66667"
         style="fill:#f89c0e;fill-opacity:1;fill-rule:nonzero;stroke:none;stroke-width:0.133333" /><path
         id="path20"
         d="m 1716.1866,821.49335 c 6.9467,6.17333 11.3467,15.14667 11.3467,25.16 0,18.58667 -15.0667,33.66667 -33.6533,33.66667 -3.9067,0 -7.64,-0.70667 -11.12,-1.92 5.9333,5.26666 13.7333,8.49333 22.3066,8.49333 18.5867,0 33.6534,-15.06667 33.6534,-33.65333 0,-14.69334 -9.4134,-27.14667 -22.5334,-31.74667"
         style="fill:#d76c11;fill-opacity:1;fill-rule:nonzero;stroke:none;stroke-width:0.133333" /><path
         id="path21"
         d="m 2448.7733,1741.7867 c 0,18.6 -15.08,33.6666 -33.6667,33.6666 -18.5867,0 -33.6667,-15.0666 -33.6667,-33.6666 0,-18.5867 15.08,-33.6534 33.6667,-33.6534 18.5867,0 33.6667,15.0667 33.6667,33.6534"
         style="fill:#f89c0e;fill-opacity:1;fill-rule:nonzero;stroke:none;stroke-width:0.133333" /><path
         id="path22"
         d="m 2426.2266,1710.0533 c 6.9467,6.16 11.36,15.1334 11.36,25.16 0,18.5867 -15.08,33.6667 -33.6667,33.6667 -3.9066,0 -7.64,-0.7067 -11.12,-1.92 5.9467,5.2667 13.7334,8.4933 22.3067,8.4933 18.5867,0 33.6667,-15.0666 33.6667,-33.6666 0,-14.68 -9.4267,-27.1334 -22.5467,-31.7334"
         style="fill:#d76c11;fill-opacity:1;fill-rule:nonzero;stroke:none;stroke-width:0.133333" /><path
         id="path23"
         d="m 1612.3066,520.10669 c 0,39.70667 -32.1733,71.88 -71.8666,71.88 -39.7067,0 -71.88,-32.17333 -71.88,-71.88 0,-39.69333 32.1733,-71.86666 71.88,-71.86666 39.6933,0 71.8666,32.17333 71.8666,71.86666"
         style="fill:#f89c0e;fill-opacity:1;fill-rule:nonzero;stroke:none;stroke-width:0.133333" /><path
         id="path24"
         d="m 1564.1866,452.33336 c 14.84,13.17333 24.24,32.33333 24.24,53.73333 0,39.69333 -32.1733,71.86667 -71.8666,71.86667 -8.3467,0 -16.3067,-1.48 -23.7467,-4.09334 12.68,11.25334 29.32,18.14667 47.6267,18.14667 39.6933,0 71.8666,-32.17333 71.8666,-71.88 0,-31.36 -20.12,-57.94666 -48.12,-67.77333"
         style="fill:#d76c11;fill-opacity:1;fill-rule:nonzero;stroke:none;stroke-width:0.133333" /><path
         id="path25"
         d="m 1358.4933,734.01335 c 0,46.16 -37.4253,83.58667 -83.5893,83.58667 -46.1627,0 -83.5854,-37.42667 -83.5854,-83.58667 0,-46.16 37.4227,-83.58666 83.5854,-83.58666 46.164,0 83.5893,37.42666 83.5893,83.58666"
         style="fill:#fab80a;fill-opacity:1;fill-rule:nonzero;stroke:none;stroke-width:0.133333" /><path
         id="path26"
         d="m 1302.52,655.20002 c 17.2586,15.30667 28.196,37.58667 28.196,62.48 0,46.16 -37.4214,83.58666 -83.584,83.58666 -9.6934,0 -18.96,-1.73333 -27.616,-4.77333 14.7546,13.09333 34.1133,21.10667 55.388,21.10667 46.164,0 83.5893,-37.42667 83.5893,-83.58667 0,-36.46666 -23.4,-67.4 -55.9733,-78.81333"
         style="fill:#f7960f;fill-opacity:1;fill-rule:nonzero;stroke:none;stroke-width:0.133333" /><path
         id="path27"
         d="m 1632.1866,1800.6533 c 0,32.52 -26.36,58.8667 -58.88,58.8667 -32.5066,0 -58.8533,-26.3467 -58.8533,-58.8667 0,-32.5066 26.3467,-58.8666 58.8533,-58.8666 32.52,0 58.88,26.36 58.88,58.8666"
         style="fill:#fab80a;fill-opacity:1;fill-rule:nonzero;stroke:none;stroke-width:0.133333" /><path
         id="path28"
         d="m 1167.8426,1714.2667 c 0,104.1333 -84.4253,188.56 -188.56796,188.56 -104.14266,0 -188.56799,-84.4267 -188.56799,-188.56 0,-104.1467 84.42533,-188.5734 188.56799,-188.5734 104.14266,0 188.56796,84.4267 188.56796,188.5734"
         style="fill:#fab80a;fill-opacity:1;fill-rule:nonzero;stroke:none;stroke-width:0.133333" /><path
         id="path29"
         d="m 1094.9413,1565.5467 c 16.6,28.0933 26.296,60.7333 26.296,95.7066 0,104.1467 -84.4253,188.5734 -188.56932,188.5734 -43.64267,0 -83.70933,-14.9734 -115.66533,-39.8667 32.81733,55.52 93.11066,92.8667 162.27199,92.8667 104.14266,0 188.56796,-84.4267 188.56796,-188.56 0,-60.5067 -28.604,-114.2134 -72.9013,-148.72"
         style="fill:#f7960f;fill-opacity:1;fill-rule:nonzero;stroke:none;stroke-width:0.133333" /><path
         id="path30"
         d="m 767.27731,2161.76 c 0,78.8133 -63.89066,142.7066 -142.70533,142.7066 -78.81466,0 -142.70666,-63.8933 -142.70666,-142.7066 0,-78.8133 63.892,-142.7067 142.70666,-142.7067 78.81467,0 142.70533,63.8934 142.70533,142.7067"
         style="fill:#fab80a;fill-opacity:1;fill-rule:nonzero;stroke:none;stroke-width:0.133333" /><path
         id="path31"
         d="m 711.03332,2048.4133 c 11.14933,20.3334 17.50933,43.6667 17.50933,68.4934 0,78.8133 -63.89067,142.7066 -142.70533,142.7066 -32.548,0 -62.45333,-11.0267 -86.46133,-29.36 24.244,44.2133 71.20933,74.2133 125.19599,74.2133 78.81467,0 142.70667,-63.8933 142.70667,-142.7066 0,-46.2667 -22.116,-87.2667 -56.24533,-113.3467"
         style="fill:#f7960f;fill-opacity:1;fill-rule:nonzero;stroke:none;stroke-width:0.133333" /><path
         id="path32"
         d="m 1106.7066,2120.9867 c 0,22.52 -18.2546,40.7733 -40.7733,40.7733 -22.5187,0 -40.7733,-18.2533 -40.7733,-40.7733 0,-22.52 18.2546,-40.7734 40.7733,-40.7734 22.5187,0 40.7733,18.2534 40.7733,40.7734"
         style="fill:#fab80a;fill-opacity:1;fill-rule:nonzero;stroke:none;stroke-width:0.133333" /><path
         id="path33"
         d="m 1582.7466,2227.6533 c 0,108.0933 -87.6266,195.72 -195.72,195.72 -108.084,0 -195.708,-87.6267 -195.708,-195.72 0,-108.08 87.624,-195.7066 195.708,-195.7066 108.0934,0 195.72,87.6266 195.72,195.7066"
         style="fill:#fab80a;fill-opacity:1;fill-rule:nonzero;stroke:none;stroke-width:0.133333" /><path
         id="path34"
         d="m 1517.9333,2082.4533 c 15.3067,27.9067 24.04,59.92 24.04,93.9867 0,108.08 -87.6267,195.7066 -195.72,195.7066 -50.3987,0 -96.2,-19.2133 -130.8933,-50.5066 33.256,60.6133 97.6493,101.7333 171.6666,101.7333 108.0934,0 195.72,-87.6267 195.72,-195.72 0,-57.68 -25.12,-109.3733 -64.8133,-145.2"
         style="fill:#f7960f;fill-opacity:1;fill-rule:nonzero;stroke:none;stroke-width:0.133333" /><path
         id="path35"
         d="m 2296.2799,1741.7867 c -28.5466,187.56 -228.04,117.7333 -228.04,117.7333 -105.5333,-252.28 -258.8799,-570.3067 -258.8799,-570.3067 146.7066,-63.5866 530.1333,168.5734 486.9199,452.5734"
         style="fill:#f89c0e;fill-opacity:1;fill-rule:nonzero;stroke:none;stroke-width:0.133333" /></g></g></svg>
