<?xml version="1.0" encoding="UTF-8" standalone="no"?>
<!-- Created with Inkscape (http://www.inkscape.org/) -->

<svg
   width="308.21005mm"
   height="221.06154mm"
   viewBox="0 0 308.21004 221.06154"
   version="1.1"
   id="svg1"
   xml:space="preserve"
   inkscape:version="1.3.1 (9b9bdc1480, 2023-11-25, custom)"
   sodipodi:docname="logo6.svg"
   xmlns:inkscape="http://www.inkscape.org/namespaces/inkscape"
   xmlns:sodipodi="http://sodipodi.sourceforge.net/DTD/sodipodi-0.dtd"
   xmlns="http://www.w3.org/2000/svg"
   xmlns:svg="http://www.w3.org/2000/svg"><sodipodi:namedview
     id="namedview1"
     pagecolor="#ffffff"
     bordercolor="#000000"
     borderopacity="0.25"
     inkscape:showpageshadow="2"
     inkscape:pageopacity="0.0"
     inkscape:pagecheckerboard="0"
     inkscape:deskcolor="#d1d1d1"
     inkscape:document-units="mm"
     inkscape:zoom="0.5"
     inkscape:cx="601"
     inkscape:cy="254"
     inkscape:window-width="1920"
     inkscape:window-height="1043"
     inkscape:window-x="0"
     inkscape:window-y="0"
     inkscape:window-maximized="1"
     inkscape:current-layer="g1"><inkscape:page
       x="0"
       y="0"
       width="308.21002"
       height="221.06154"
       id="page1"
       margin="0"
       bleed="0" /></sodipodi:namedview><defs
     id="defs1"><linearGradient
       x1="0"
       y1="0"
       x2="1"
       y2="0"
       gradientUnits="userSpaceOnUse"
       gradientTransform="matrix(123.126,1190.23,1190.23,-123.126,2473.4,3415.48)"
       spreadMethod="pad"
       id="linearGradient9"><stop
         style="stop-opacity:1;stop-color:#8bd140"
         offset="0"
         id="stop8" /><stop
         style="stop-opacity:1;stop-color:#bbdf35"
         offset="1"
         id="stop9" /></linearGradient><clipPath
       clipPathUnits="userSpaceOnUse"
       id="clipPath9"><path
         d="m 2444.18,1624.73 c -62.49,0 -125.45,3.92 -188.51,11.93 -125.58,133.33 -218.43,286.97 -275.96,451.31 40.17,-17.75 81.56,-33.26 124.12,-46.5 112.87,-35.27 227.16,-52.04 339.61,-52.04 486.14,0 937.83,313.47 1090.14,801.47 93.39,299 58.18,617.1 -85.53,883.28 50.77,151.39 84.81,310.41 100.74,474.66 -184.32,199.24 -416.6,341.45 -668.87,417.83 -1.52,2.38 -3.05,4.76 -4.58,7.13 5.82,-1.74 11.56,-3.5 17.38,-5.31 206.59,-64.6 389.44,-169.45 542.49,-303.34 435.02,-380.65 629.58,-995.63 446.2,-1582.82 -201.31,-644.61 -795.8,-1057.64 -1437.23,-1057.6"
         id="path9" /></clipPath><linearGradient
       x1="0"
       y1="0"
       x2="1"
       y2="0"
       gradientUnits="userSpaceOnUse"
       gradientTransform="matrix(-561.093,1218.88,1218.88,561.093,2431.28,3063.95)"
       spreadMethod="pad"
       id="linearGradient13"><stop
         style="stop-opacity:1;stop-color:#daee8e"
         offset="0"
         id="stop10" /><stop
         style="stop-opacity:1;stop-color:#daee8e"
         offset="0.0122699"
         id="stop11" /><stop
         style="stop-opacity:1;stop-color:#bbdf35"
         offset="0.269939"
         id="stop12" /><stop
         style="stop-opacity:1;stop-color:#8bd140"
         offset="1"
         id="stop13" /></linearGradient><clipPath
       clipPathUnits="userSpaceOnUse"
       id="clipPath13"><path
         d="m 3446.56,3669.76 c -88.53,163.11 -213.39,298.76 -361.2,399.36 -36.24,170.97 -104.27,339.31 -205.44,497.55 252.27,-76.38 484.55,-218.59 668.87,-417.83 -15.93,-164.25 -49.97,-323.27 -100.74,-474.66 -0.5,-1.47 -1,-2.95 -1.49,-4.42"
         id="path13" /></clipPath><clipPath
       clipPathUnits="userSpaceOnUse"
       id="clipPath16"><path
         d="m 1985.93,1696.4 c -202.82,64.8 -382.4,168.65 -533.21,300.51 l 239.91,274.15 c 40.56,-35.5 83.29,-67.85 128.03,-96.97 25.16,-162.46 79.75,-323.98 165.27,-477.69 m -533.21,300.51 v 0 c -109.57,95.87 -203.87,206.59 -280.73,327.98 127.74,-26.78 259.49,-40.74 393.96,-40.74 34.54,0 69.27,0.92 104.15,2.78 -94.48,87.19 -175.48,190.64 -237.21,308.48 -88.26,168.32 -130.2,348.83 -130.39,526.89 2.54,-320.97 140.53,-632.79 390.13,-851.24 L 1452.72,1996.91 M 937.727,3122.8 c -0.786,151.15 21.347,305.01 68.773,457 201.23,644.51 795.65,1057.5 1437.05,1057.5 53.67,0 107.73,-2.9 161.85,-8.8 2.23,-2.18 4.44,-4.36 6.66,-6.55 -56.09,6.35 -112.65,9.57 -169.41,9.57 -33.25,0 -66.5,-1.1 -99.84,-3.32 -202.89,-13.6 -406.36,-68.59 -598.09,-169.04 C 1230.94,4189.78 937.293,3665.37 937.727,3122.8"
         id="path16" /></clipPath><clipPath
       clipPathUnits="userSpaceOnUse"
       id="clipPath20"><path
         d="m 1565.95,2284.15 c -134.47,0 -266.22,13.96 -393.96,40.74 -1.4,0.29 -2.8,0.59 -4.2,0.89 -20.3,32.46 -39.57,65.9 -57.65,100.44 -116.761,222.78 -172.226,461.36 -172.413,696.58 -0.434,542.57 293.213,1066.98 806.993,1336.36 191.73,100.45 395.2,155.44 598.09,169.04 33.34,2.22 66.59,3.32 99.84,3.32 56.76,0 113.32,-3.22 169.41,-9.57 136.88,-135.65 240.34,-291.96 308.36,-459.53 -147.47,67.97 -309.92,104.81 -477.31,104.81 -25.23,0 -50.64,-0.84 -76.06,-2.54 -158.52,-10.55 -311,-53.73 -453.13,-128.39 -389.19,-203.89 -611.86,-602.35 -611.42,-1014 0.19,-178.06 42.13,-358.57 130.39,-526.89 61.73,-117.84 142.73,-221.29 237.21,-308.48 -34.88,-1.86 -69.61,-2.78 -104.15,-2.78"
         id="path20" /></clipPath><linearGradient
       x1="0"
       y1="0"
       x2="1"
       y2="0"
       gradientUnits="userSpaceOnUse"
       gradientTransform="matrix(673.896,0,0,-673.896,2539.66,3708.74)"
       spreadMethod="pad"
       id="linearGradient23"><stop
         style="stop-opacity:1;stop-color:#a4574a"
         offset="0"
         id="stop21" /><stop
         style="stop-opacity:1;stop-color:#7f342c"
         offset="0.539496"
         id="stop22" /><stop
         style="stop-opacity:1;stop-color:#6f3734"
         offset="1"
         id="stop23" /></linearGradient><clipPath
       clipPathUnits="userSpaceOnUse"
       id="clipPath23"><path
         d="m 2689.52,2588.68 c -53.58,0 -97.62,18.03 -122.55,58.86 -19.52,39.22 -27.28,86.64 -27.3,137.78 -0.07,143.52 60.85,316.37 94.18,419.62 48.56,121.38 171.15,196.67 321.93,196.67 10.78,0 21.72,-0.38 32.77,-1.16 18.79,89.87 28.06,180.31 28.07,270.15 0.04,362.23 -150.52,714.71 -435.32,980.94 -17.45,16.22 -30.63,49.63 -30.67,83.95 -0.02,20.77 4.77,41.88 16.34,59.72 15.03,23.53 39.58,33.58 64.37,33.58 25.6,0 51.45,-10.72 67.29,-28.39 282.59,-304.57 417.88,-670.1 417.97,-1027.97 0.03,-133.04 -18.62,-265.01 -55.33,-392.4 v 0 0 c 93.63,-38.42 152.33,-143.1 152.29,-264.95 -0.03,-77.48 -23.8,-161.89 -77.45,-240.63 -99.66,-161.69 -306,-285.77 -446.59,-285.77"
         id="path23" /></clipPath><linearGradient
       x1="0"
       y1="0"
       x2="1"
       y2="0"
       gradientUnits="userSpaceOnUse"
       gradientTransform="matrix(660.239,0,0,-660.239,1753.17,2486.87)"
       spreadMethod="pad"
       id="linearGradient26"><stop
         style="stop-opacity:1;stop-color:#a4574a"
         offset="0"
         id="stop24" /><stop
         style="stop-opacity:1;stop-color:#7f342c"
         offset="0.539496"
         id="stop25" /><stop
         style="stop-opacity:1;stop-color:#6f3734"
         offset="1"
         id="stop26" /></linearGradient><clipPath
       clipPathUnits="userSpaceOnUse"
       id="clipPath26"><path
         d="m 2260.53,1370.81 c -21.47,0 -42.01,8.43 -55.16,23.32 -271.99,295.71 -400.93,647.7 -400.96,990.4 -0.01,123.65 16.76,246.08 49.65,364.23 v 0 0 c -65.41,34.45 -100.85,107.62 -100.89,192.49 -0.02,45.62 10.18,94.63 31.45,142.82 v 0 0 l -0.4,0.19 c 0.66,1.02 1.22,2.14 1.84,3.15 l 0.1,0.21 h 0.06 c 120.94,245.66 429.76,515.3 465.42,515.3 1.36,0 2.33,-0.39 2.87,-1.19 0,-0.01 0,-0.02 0,-0.03 -0.13,-9.84 -309.02,-298.81 -403.23,-551.42 v 0 0 c 13.24,-7.59 26.48,-15.17 39.74,-22.8 103.46,225.18 380.49,482.19 413.88,482.19 1.28,0 2.2,-0.38 2.74,-1.14 0,-0.01 0,-0.01 0,-0.02 0.11,-10.45 -275.55,-286.73 -351.5,-518.31 v 0 0 c 13.1,-7.54 26.31,-15.1 39.4,-22.65 85.97,204.75 331.36,449.29 362.42,449.29 1.18,0 2.05,-0.35 2.59,-1.07 0,-0.01 0,-0.01 0,-0.02 0.12,-11.44 -242.16,-274.96 -300.28,-485.28 v 0 0 c 13.17,-7.55 26.34,-15.1 39.51,-22.66 68.44,184.31 282.11,416.21 311.12,416.21 1.11,0 1.96,-0.34 2.51,-1.04 0,-0.01 0,-0.01 0,-0.02 0.05,-12.34 -208.78,-263.16 -248.75,-452.35 v 0 0 l 0.18,-0.03 -0.33,-0.79 -0.58,-1.72 -0.25,0.12 c -39.23,-83.74 -113.51,-142.59 -218.78,-142.59 -4.04,0 -8.13,0.09 -12.26,0.26 -14.65,-77.41 -21.87,-155.03 -21.88,-232.04 -0.05,-344.71 144.34,-677.3 413.54,-924.97 15.67,-14.14 26.99,-46.3 26.97,-81.76 -0.01,-23.67 -5.09,-48.82 -17.31,-71.04 -17.07,-31.52 -46.01,-45.24 -73.43,-45.24"
         id="path26" /></clipPath></defs><g
     inkscape:label="Calque 1"
     inkscape:groupmode="layer"
     id="layer1"
     transform="translate(-21.375439,-32.433213)" /><circle
     style="opacity:1;fill:none;fill-opacity:1;fill-rule:evenodd;stroke:#90a147;stroke-width:4.99999;stroke-dasharray:none;stroke-opacity:1;paint-order:markers fill stroke"
     id="path6"
     cx="151.20784"
     cy="110.48138"
     r="98.507027" /><text
     xml:space="preserve"
     style="font-style:normal;font-variant:normal;font-weight:normal;font-stretch:normal;font-size:45.8611px;font-family:Hypero;-inkscape-font-specification:'Hypero, Normal';font-variant-ligatures:normal;font-variant-caps:normal;font-variant-numeric:normal;font-variant-east-asian:normal;fill:#6c6c6c;fill-opacity:1;fill-rule:evenodd;stroke-width:0;paint-order:markers fill stroke"
     x="75.898613"
     y="100.54887"
     id="text6"><tspan
       sodipodi:role="line"
       id="tspan6"
       x="75.898613"
       y="100.54887"
       style="font-style:normal;font-variant:normal;font-weight:normal;font-stretch:normal;font-size:45.8611px;font-family:Hypero;-inkscape-font-specification:'Hypero, Normal';font-variant-ligatures:normal;font-variant-caps:normal;font-variant-numeric:normal;font-variant-east-asian:normal;fill:#6c6c6c;fill-opacity:1;stroke-width:0">Menu</tspan></text><g
     id="g1"
     inkscape:groupmode="layer"
     inkscape:label="1"
     transform="matrix(0.26458333,0,0,0.26458334,198.62457,-32.433213)"><path
       id="path21"
       d="m 2689.52,2588.68 c -53.58,0 -97.62,18.03 -122.55,58.86 -19.52,39.22 -27.28,86.64 -27.3,137.78 -0.07,143.52 60.85,316.37 94.18,419.62 48.56,121.38 171.15,196.67 321.93,196.67 10.78,0 21.72,-0.38 32.77,-1.16 18.79,89.87 28.06,180.31 28.07,270.15 0.04,362.23 -150.52,714.71 -435.32,980.94 -17.45,16.22 -30.63,49.63 -30.67,83.95 -0.02,20.77 4.77,41.88 16.34,59.72 15.03,23.53 39.58,33.58 64.37,33.58 25.6,0 51.45,-10.72 67.29,-28.39 282.59,-304.57 417.88,-670.1 417.97,-1027.97 0.03,-133.04 -18.62,-265.01 -55.33,-392.4 v 0 0 c 93.63,-38.42 152.33,-143.1 152.29,-264.95 -0.03,-77.48 -23.8,-161.89 -77.45,-240.63 -99.66,-161.69 -306,-285.77 -446.59,-285.77"
       style="fill:#62959b;fill-opacity:1;fill-rule:nonzero;stroke:none"
       transform="matrix(0.05742557,0.21431512,0.21431512,-0.05742557,-820.24367,-24.609657)"
       clip-path="url(#clipPath23)" /><path
       id="path24"
       d="m 2260.53,1370.81 c -21.47,0 -42.01,8.43 -55.16,23.32 -271.99,295.71 -400.93,647.7 -400.96,990.4 -0.01,123.65 16.76,246.08 49.65,364.23 v 0 0 c -65.41,34.45 -100.85,107.62 -100.89,192.49 -0.02,45.62 10.18,94.63 31.45,142.82 v 0 0 l -0.4,0.19 c 0.66,1.02 1.22,2.14 1.84,3.15 l 0.1,0.21 h 0.06 c 120.94,245.66 429.76,515.3 465.42,515.3 1.36,0 2.33,-0.39 2.87,-1.19 0,-0.01 0,-0.02 0,-0.03 -0.13,-9.84 -309.02,-298.81 -403.23,-551.42 v 0 0 c 13.24,-7.59 26.48,-15.17 39.74,-22.8 103.46,225.18 380.49,482.19 413.88,482.19 1.28,0 2.2,-0.38 2.74,-1.14 0,-0.01 0,-0.01 0,-0.02 0.11,-10.45 -275.55,-286.73 -351.5,-518.31 v 0 0 c 13.1,-7.54 26.31,-15.1 39.4,-22.65 85.97,204.75 331.36,449.29 362.42,449.29 1.18,0 2.05,-0.35 2.59,-1.07 0,-0.01 0,-0.01 0,-0.02 0.12,-11.44 -242.16,-274.96 -300.28,-485.28 v 0 0 c 13.17,-7.55 26.34,-15.1 39.51,-22.66 68.44,184.31 282.11,416.21 311.12,416.21 1.11,0 1.96,-0.34 2.51,-1.04 0,-0.01 0,-0.01 0,-0.02 0.05,-12.34 -208.78,-263.16 -248.75,-452.35 v 0 0 l 0.18,-0.03 -0.33,-0.79 -0.58,-1.72 -0.25,0.12 c -39.23,-83.74 -113.51,-142.59 -218.78,-142.59 -4.04,0 -8.13,0.09 -12.26,0.26 -14.65,-77.41 -21.87,-155.03 -21.88,-232.04 -0.05,-344.71 144.34,-677.3 413.54,-924.97 15.67,-14.14 26.99,-46.3 26.97,-81.76 -0.01,-23.67 -5.09,-48.82 -17.31,-71.04 -17.07,-31.52 -46.01,-45.24 -73.43,-45.24"
       style="fill:#62959b;fill-opacity:1;fill-rule:nonzero;stroke:none"
       transform="matrix(0.03707391,0.23207124,0.23207124,-0.03707391,-1068.2737,399.33945)"
       clip-path="url(#clipPath26)" /><text
       xml:space="preserve"
       style="font-style:normal;font-variant:normal;font-weight:normal;font-stretch:normal;font-size:160px;font-family:Hypero;-inkscape-font-specification:'Hypero, Normal';font-variant-ligatures:normal;font-variant-caps:normal;font-variant-numeric:normal;font-variant-east-asian:normal;opacity:1;fill:#6c6c6c;fill-opacity:1;fill-rule:evenodd;stroke:none;stroke-width:18.8976;stroke-dasharray:none;stroke-opacity:1;paint-order:markers fill stroke"
       x="-465.88678"
       y="661.12518"
       id="text7"><tspan
         sodipodi:role="line"
         id="tspan7"
         x="-465.88678"
         y="661.12518">Portage</tspan></text></g></svg>
