<?xml version="1.0" encoding="UTF-8" standalone="no"?>
<!-- Created with Inkscape (http://www.inkscape.org/) -->

<svg
   width="308.21005mm"
   height="221.06154mm"
   viewBox="0 0 308.21004 221.06154"
   version="1.1"
   id="svg1"
   xml:space="preserve"
   inkscape:version="1.3.1 (9b9bdc1480, 2023-11-25, custom)"
   sodipodi:docname="logo6_vec.svg"
   xmlns:inkscape="http://www.inkscape.org/namespaces/inkscape"
   xmlns:sodipodi="http://sodipodi.sourceforge.net/DTD/sodipodi-0.dtd"
   xmlns="http://www.w3.org/2000/svg"
   xmlns:svg="http://www.w3.org/2000/svg"><sodipodi:namedview
     id="namedview1"
     pagecolor="#ffffff"
     bordercolor="#000000"
     borderopacity="0.25"
     inkscape:showpageshadow="2"
     inkscape:pageopacity="0.0"
     inkscape:pagecheckerboard="0"
     inkscape:deskcolor="#d1d1d1"
     inkscape:document-units="mm"
     inkscape:zoom="0.70710678"
     inkscape:cx="720.54181"
     inkscape:cy="380.42345"
     inkscape:window-width="1854"
     inkscape:window-height="1011"
     inkscape:window-x="0"
     inkscape:window-y="0"
     inkscape:window-maximized="1"
     inkscape:current-layer="svg1"><inkscape:page
       x="0"
       y="0"
       width="308.21002"
       height="221.06154"
       id="page1"
       margin="0"
       bleed="0" /></sodipodi:namedview><defs
     id="defs1"><linearGradient
       x1="0"
       y1="0"
       x2="1"
       y2="0"
       gradientUnits="userSpaceOnUse"
       gradientTransform="matrix(123.126,1190.23,1190.23,-123.126,2473.4,3415.48)"
       spreadMethod="pad"
       id="linearGradient9"><stop
         style="stop-opacity:1;stop-color:#8bd140"
         offset="0"
         id="stop8" /><stop
         style="stop-opacity:1;stop-color:#bbdf35"
         offset="1"
         id="stop9" /></linearGradient><clipPath
       clipPathUnits="userSpaceOnUse"
       id="clipPath9"><path
         d="m 2444.18,1624.73 c -62.49,0 -125.45,3.92 -188.51,11.93 -125.58,133.33 -218.43,286.97 -275.96,451.31 40.17,-17.75 81.56,-33.26 124.12,-46.5 112.87,-35.27 227.16,-52.04 339.61,-52.04 486.14,0 937.83,313.47 1090.14,801.47 93.39,299 58.18,617.1 -85.53,883.28 50.77,151.39 84.81,310.41 100.74,474.66 -184.32,199.24 -416.6,341.45 -668.87,417.83 -1.52,2.38 -3.05,4.76 -4.58,7.13 5.82,-1.74 11.56,-3.5 17.38,-5.31 206.59,-64.6 389.44,-169.45 542.49,-303.34 435.02,-380.65 629.58,-995.63 446.2,-1582.82 -201.31,-644.61 -795.8,-1057.64 -1437.23,-1057.6"
         id="path9" /></clipPath><linearGradient
       x1="0"
       y1="0"
       x2="1"
       y2="0"
       gradientUnits="userSpaceOnUse"
       gradientTransform="matrix(-561.093,1218.88,1218.88,561.093,2431.28,3063.95)"
       spreadMethod="pad"
       id="linearGradient13"><stop
         style="stop-opacity:1;stop-color:#daee8e"
         offset="0"
         id="stop10" /><stop
         style="stop-opacity:1;stop-color:#daee8e"
         offset="0.0122699"
         id="stop11" /><stop
         style="stop-opacity:1;stop-color:#bbdf35"
         offset="0.269939"
         id="stop12" /><stop
         style="stop-opacity:1;stop-color:#8bd140"
         offset="1"
         id="stop13" /></linearGradient><clipPath
       clipPathUnits="userSpaceOnUse"
       id="clipPath13"><path
         d="m 3446.56,3669.76 c -88.53,163.11 -213.39,298.76 -361.2,399.36 -36.24,170.97 -104.27,339.31 -205.44,497.55 252.27,-76.38 484.55,-218.59 668.87,-417.83 -15.93,-164.25 -49.97,-323.27 -100.74,-474.66 -0.5,-1.47 -1,-2.95 -1.49,-4.42"
         id="path13" /></clipPath><clipPath
       clipPathUnits="userSpaceOnUse"
       id="clipPath16"><path
         d="m 1985.93,1696.4 c -202.82,64.8 -382.4,168.65 -533.21,300.51 l 239.91,274.15 c 40.56,-35.5 83.29,-67.85 128.03,-96.97 25.16,-162.46 79.75,-323.98 165.27,-477.69 m -533.21,300.51 v 0 c -109.57,95.87 -203.87,206.59 -280.73,327.98 127.74,-26.78 259.49,-40.74 393.96,-40.74 34.54,0 69.27,0.92 104.15,2.78 -94.48,87.19 -175.48,190.64 -237.21,308.48 -88.26,168.32 -130.2,348.83 -130.39,526.89 2.54,-320.97 140.53,-632.79 390.13,-851.24 L 1452.72,1996.91 M 937.727,3122.8 c -0.786,151.15 21.347,305.01 68.773,457 201.23,644.51 795.65,1057.5 1437.05,1057.5 53.67,0 107.73,-2.9 161.85,-8.8 2.23,-2.18 4.44,-4.36 6.66,-6.55 -56.09,6.35 -112.65,9.57 -169.41,9.57 -33.25,0 -66.5,-1.1 -99.84,-3.32 -202.89,-13.6 -406.36,-68.59 -598.09,-169.04 C 1230.94,4189.78 937.293,3665.37 937.727,3122.8"
         id="path16" /></clipPath><clipPath
       clipPathUnits="userSpaceOnUse"
       id="clipPath20"><path
         d="m 1565.95,2284.15 c -134.47,0 -266.22,13.96 -393.96,40.74 -1.4,0.29 -2.8,0.59 -4.2,0.89 -20.3,32.46 -39.57,65.9 -57.65,100.44 -116.761,222.78 -172.226,461.36 -172.413,696.58 -0.434,542.57 293.213,1066.98 806.993,1336.36 191.73,100.45 395.2,155.44 598.09,169.04 33.34,2.22 66.59,3.32 99.84,3.32 56.76,0 113.32,-3.22 169.41,-9.57 136.88,-135.65 240.34,-291.96 308.36,-459.53 -147.47,67.97 -309.92,104.81 -477.31,104.81 -25.23,0 -50.64,-0.84 -76.06,-2.54 -158.52,-10.55 -311,-53.73 -453.13,-128.39 -389.19,-203.89 -611.86,-602.35 -611.42,-1014 0.19,-178.06 42.13,-358.57 130.39,-526.89 61.73,-117.84 142.73,-221.29 237.21,-308.48 -34.88,-1.86 -69.61,-2.78 -104.15,-2.78"
         id="path20" /></clipPath><linearGradient
       x1="0"
       y1="0"
       x2="1"
       y2="0"
       gradientUnits="userSpaceOnUse"
       gradientTransform="matrix(673.896,0,0,-673.896,2539.66,3708.74)"
       spreadMethod="pad"
       id="linearGradient23"><stop
         style="stop-opacity:1;stop-color:#a4574a"
         offset="0"
         id="stop21" /><stop
         style="stop-opacity:1;stop-color:#7f342c"
         offset="0.539496"
         id="stop22" /><stop
         style="stop-opacity:1;stop-color:#6f3734"
         offset="1"
         id="stop23" /></linearGradient><clipPath
       clipPathUnits="userSpaceOnUse"
       id="clipPath23"><path
         d="m 2689.52,2588.68 c -53.58,0 -97.62,18.03 -122.55,58.86 -19.52,39.22 -27.28,86.64 -27.3,137.78 -0.07,143.52 60.85,316.37 94.18,419.62 48.56,121.38 171.15,196.67 321.93,196.67 10.78,0 21.72,-0.38 32.77,-1.16 18.79,89.87 28.06,180.31 28.07,270.15 0.04,362.23 -150.52,714.71 -435.32,980.94 -17.45,16.22 -30.63,49.63 -30.67,83.95 -0.02,20.77 4.77,41.88 16.34,59.72 15.03,23.53 39.58,33.58 64.37,33.58 25.6,0 51.45,-10.72 67.29,-28.39 282.59,-304.57 417.88,-670.1 417.97,-1027.97 0.03,-133.04 -18.62,-265.01 -55.33,-392.4 v 0 0 c 93.63,-38.42 152.33,-143.1 152.29,-264.95 -0.03,-77.48 -23.8,-161.89 -77.45,-240.63 -99.66,-161.69 -306,-285.77 -446.59,-285.77"
         id="path23" /></clipPath><linearGradient
       x1="0"
       y1="0"
       x2="1"
       y2="0"
       gradientUnits="userSpaceOnUse"
       gradientTransform="matrix(660.239,0,0,-660.239,1753.17,2486.87)"
       spreadMethod="pad"
       id="linearGradient26"><stop
         style="stop-opacity:1;stop-color:#a4574a"
         offset="0"
         id="stop24" /><stop
         style="stop-opacity:1;stop-color:#7f342c"
         offset="0.539496"
         id="stop25" /><stop
         style="stop-opacity:1;stop-color:#6f3734"
         offset="1"
         id="stop26" /></linearGradient><clipPath
       clipPathUnits="userSpaceOnUse"
       id="clipPath26"><path
         d="m 2260.53,1370.81 c -21.47,0 -42.01,8.43 -55.16,23.32 -271.99,295.71 -400.93,647.7 -400.96,990.4 -0.01,123.65 16.76,246.08 49.65,364.23 v 0 0 c -65.41,34.45 -100.85,107.62 -100.89,192.49 -0.02,45.62 10.18,94.63 31.45,142.82 v 0 0 l -0.4,0.19 c 0.66,1.02 1.22,2.14 1.84,3.15 l 0.1,0.21 h 0.06 c 120.94,245.66 429.76,515.3 465.42,515.3 1.36,0 2.33,-0.39 2.87,-1.19 0,-0.01 0,-0.02 0,-0.03 -0.13,-9.84 -309.02,-298.81 -403.23,-551.42 v 0 0 c 13.24,-7.59 26.48,-15.17 39.74,-22.8 103.46,225.18 380.49,482.19 413.88,482.19 1.28,0 2.2,-0.38 2.74,-1.14 0,-0.01 0,-0.01 0,-0.02 0.11,-10.45 -275.55,-286.73 -351.5,-518.31 v 0 0 c 13.1,-7.54 26.31,-15.1 39.4,-22.65 85.97,204.75 331.36,449.29 362.42,449.29 1.18,0 2.05,-0.35 2.59,-1.07 0,-0.01 0,-0.01 0,-0.02 0.12,-11.44 -242.16,-274.96 -300.28,-485.28 v 0 0 c 13.17,-7.55 26.34,-15.1 39.51,-22.66 68.44,184.31 282.11,416.21 311.12,416.21 1.11,0 1.96,-0.34 2.51,-1.04 0,-0.01 0,-0.01 0,-0.02 0.05,-12.34 -208.78,-263.16 -248.75,-452.35 v 0 0 l 0.18,-0.03 -0.33,-0.79 -0.58,-1.72 -0.25,0.12 c -39.23,-83.74 -113.51,-142.59 -218.78,-142.59 -4.04,0 -8.13,0.09 -12.26,0.26 -14.65,-77.41 -21.87,-155.03 -21.88,-232.04 -0.05,-344.71 144.34,-677.3 413.54,-924.97 15.67,-14.14 26.99,-46.3 26.97,-81.76 -0.01,-23.67 -5.09,-48.82 -17.31,-71.04 -17.07,-31.52 -46.01,-45.24 -73.43,-45.24"
         id="path26" /></clipPath></defs><g
     inkscape:label="Calque 1"
     inkscape:groupmode="layer"
     id="layer1"
     transform="translate(-21.375439,-32.433213)" /><g
     id="g1"
     inkscape:groupmode="layer"
     inkscape:label="1"
     transform="matrix(0.26458333,0,0,0.26458334,198.62457,-32.433213)" /><circle
     style="fill:none;fill-opacity:1;fill-rule:evenodd;stroke:#90a147;stroke-width:4.99999;stroke-dasharray:none;stroke-opacity:1;paint-order:markers fill stroke"
     id="path6"
     cx="151.20784"
     cy="110.48138"
     r="98.507027" /><path
     d="m 75.525662,105.03437 q -1.284111,0 -1.972028,-0.73378 -0.687916,-0.73378 -0.687916,-2.01789 V 74.720183 q 0,-1.329972 0.733777,-2.017889 0.733778,-0.733777 2.017889,-0.733777 1.146527,0 1.788583,0.458611 0.687916,0.41275 1.238249,1.467555 L 89.971908,94.853205 H 88.504353 L 99.832044,73.894683 q 0.550336,-1.054805 1.192386,-1.467555 0.64206,-0.458611 1.78859,-0.458611 1.28411,0 1.97202,0.733777 0.68792,0.687917 0.68792,2.017889 V 102.2827 q 0,1.28411 -0.68792,2.01789 -0.64205,0.73378 -1.97202,0.73378 -1.28412,0 -1.97203,-0.73378 -0.68792,-0.73378 -0.68792,-2.01789 V 81.049014 h 1.00895 l -9.630835,17.564801 q -0.458611,0.779639 -0.963083,1.146528 -0.504472,0.366887 -1.375833,0.366887 -0.871361,0 -1.421694,-0.366887 -0.550333,-0.41275 -0.963083,-1.146528 L 77.084939,81.003153 h 1.100666 V 102.2827 q 0,1.28411 -0.687916,2.01789 -0.642055,0.73378 -1.972027,0.73378 z m 47.557868,0.0917 q -3.80647,0 -6.55813,-1.42169 -2.75167,-1.4217 -4.26509,-4.035779 -1.46755,-2.614083 -1.46755,-6.191249 0,-3.485443 1.42169,-6.099526 1.46756,-2.614083 3.98992,-4.081638 2.56822,-1.513416 5.82436,-1.513416 2.38478,0 4.26508,0.779639 1.92617,0.779638 3.25614,2.247193 1.37583,1.467556 2.06375,3.577166 0.73378,2.06375 0.73378,4.677832 0,0.8255 -0.5962,1.284111 -0.55033,0.41275 -1.60514,0.41275 h -14.72141 v -3.301999 h 12.88697 l -0.73378,0.687916 q 0,-2.10961 -0.64205,-3.531304 -0.5962,-1.421694 -1.78859,-2.155472 -1.14652,-0.779639 -2.88925,-0.779639 -1.92616,0 -3.302,0.917222 -1.32997,0.871361 -2.06374,2.522361 -0.68792,1.605138 -0.68792,3.852332 v 0.321028 q 0,3.76061 1.74272,5.640915 1.78858,1.834447 5.22817,1.834447 1.19238,0 2.65994,-0.27517 1.51342,-0.32103 2.84339,-1.054805 0.96308,-0.550333 1.69686,-0.458611 0.73378,0.04586 1.14653,0.504472 0.45861,0.458611 0.55033,1.146524 0.0917,0.64206 -0.27517,1.32998 -0.32103,0.68791 -1.14652,1.19238 -1.60514,1.00895 -3.71475,1.51342 -2.06375,0.45861 -3.85234,0.45861 z m 16.64758,-0.0917 q -1.37584,0 -2.10962,-0.73378 -0.73377,-0.77964 -0.73377,-2.20133 V 84.763763 q 0,-1.421694 0.73377,-2.155471 0.73378,-0.733778 2.06375,-0.733778 1.32998,0 2.06375,0.733778 0.73378,0.733777 0.73378,2.155471 v 3.118555 l -0.50447,-1.146527 q 1.00894,-2.430639 3.11855,-3.668888 2.15548,-1.284111 4.86128,-1.284111 2.70581,0 4.44853,1.008944 1.74272,1.008944 2.61408,3.072694 0.87136,2.017888 0.87136,5.136443 v 11.098387 q 0,1.42169 -0.73378,2.20133 -0.73377,0.73378 -2.10961,0.73378 -1.37583,0 -2.15547,-0.73378 -0.73378,-0.77964 -0.73378,-2.20133 V 91.276039 q 0,-2.614082 -1.00894,-3.806471 -0.96308,-1.192388 -3.02683,-1.192388 -2.52236,0 -4.03578,1.605138 -1.46756,1.559278 -1.46756,4.17336 v 10.043582 q 0,2.93511 -2.88924,2.93511 z m 32.10272,0.0917 q -2.79753,0 -4.63197,-1.00894 -1.83445,-1.05481 -2.75167,-3.11856 -0.87136,-2.063747 -0.87136,-5.136441 V 84.763763 q 0,-1.467555 0.73378,-2.155471 0.73378,-0.733778 2.10961,-0.733778 1.37583,0 2.10961,0.733778 0.77964,0.687916 0.77964,2.155471 v 11.190109 q 0,2.384777 0.96308,3.531304 0.96308,1.146524 3.0727,1.146524 2.29305,0 3.76061,-1.559274 1.46755,-1.605138 1.46755,-4.219221 V 84.763763 q 0,-1.467555 0.73378,-2.155471 0.73378,-0.733778 2.10961,-0.733778 1.37583,0 2.10961,0.733778 0.77964,0.687916 0.77964,2.155471 v 17.335497 q 0,2.93511 -2.79753,2.93511 -1.32997,0 -2.06375,-0.73378 -0.73378,-0.77964 -0.73378,-2.20133 v -3.485445 l 0.64206,1.375833 q -0.96308,2.476502 -2.93511,3.806472 -1.92617,1.32997 -4.58611,1.32997 z"
     id="text6"
     style="font-size:45.8611px;font-family:Nunito;-inkscape-font-specification:'Nunito, @wght=700';font-variation-settings:'wght' 700;fill:#6c6c6c;fill-rule:evenodd;stroke-width:0;paint-order:markers fill stroke"
     aria-label="Menu" /><path
     id="path21"
     d="m 2689.52,2588.68 c -53.58,0 -97.62,18.03 -122.55,58.86 -19.52,39.22 -27.28,86.64 -27.3,137.78 -0.07,143.52 60.85,316.37 94.18,419.62 48.56,121.38 171.15,196.67 321.93,196.67 10.78,0 21.72,-0.38 32.77,-1.16 18.79,89.87 28.06,180.31 28.07,270.15 0.04,362.23 -150.52,714.71 -435.32,980.94 -17.45,16.22 -30.63,49.63 -30.67,83.95 -0.02,20.77 4.77,41.88 16.34,59.72 15.03,23.53 39.58,33.58 64.37,33.58 25.6,0 51.45,-10.72 67.29,-28.39 282.59,-304.57 417.88,-670.1 417.97,-1027.97 0.03,-133.04 -18.62,-265.01 -55.33,-392.4 v 0 0 c 93.63,-38.42 152.33,-143.1 152.29,-264.95 -0.03,-77.48 -23.8,-161.89 -77.45,-240.63 -99.66,-161.69 -306,-285.77 -446.59,-285.77"
     style="fill:#62959b;fill-opacity:1;fill-rule:nonzero;stroke:none"
     transform="matrix(0.01519385,0.05670421,0.05670421,-0.01519385,-18.398232,-38.944518)"
     clip-path="url(#clipPath23)" /><path
     id="path24"
     d="m 2260.53,1370.81 c -21.47,0 -42.01,8.43 -55.16,23.32 -271.99,295.71 -400.93,647.7 -400.96,990.4 -0.01,123.65 16.76,246.08 49.65,364.23 v 0 0 c -65.41,34.45 -100.85,107.62 -100.89,192.49 -0.02,45.62 10.18,94.63 31.45,142.82 v 0 0 l -0.4,0.19 c 0.66,1.02 1.22,2.14 1.84,3.15 l 0.1,0.21 h 0.06 c 120.94,245.66 429.76,515.3 465.42,515.3 1.36,0 2.33,-0.39 2.87,-1.19 0,-0.01 0,-0.02 0,-0.03 -0.13,-9.84 -309.02,-298.81 -403.23,-551.42 v 0 0 c 13.24,-7.59 26.48,-15.17 39.74,-22.8 103.46,225.18 380.49,482.19 413.88,482.19 1.28,0 2.2,-0.38 2.74,-1.14 0,-0.01 0,-0.01 0,-0.02 0.11,-10.45 -275.55,-286.73 -351.5,-518.31 v 0 0 c 13.1,-7.54 26.31,-15.1 39.4,-22.65 85.97,204.75 331.36,449.29 362.42,449.29 1.18,0 2.05,-0.35 2.59,-1.07 0,-0.01 0,-0.01 0,-0.02 0.12,-11.44 -242.16,-274.96 -300.28,-485.28 v 0 0 c 13.17,-7.55 26.34,-15.1 39.51,-22.66 68.44,184.31 282.11,416.21 311.12,416.21 1.11,0 1.96,-0.34 2.51,-1.04 0,-0.01 0,-0.01 0,-0.02 0.05,-12.34 -208.78,-263.16 -248.75,-452.35 v 0 0 l 0.18,-0.03 -0.33,-0.79 -0.58,-1.72 -0.25,0.12 c -39.23,-83.74 -113.51,-142.59 -218.78,-142.59 -4.04,0 -8.13,0.09 -12.26,0.26 -14.65,-77.41 -21.87,-155.03 -21.88,-232.04 -0.05,-344.71 144.34,-677.3 413.54,-924.97 15.67,-14.14 26.99,-46.3 26.97,-81.76 -0.01,-23.67 -5.09,-48.82 -17.31,-71.04 -17.07,-31.52 -46.01,-45.24 -73.43,-45.24"
     style="fill:#62959b;fill-opacity:1;fill-rule:nonzero;stroke:none"
     transform="matrix(0.00980914,0.06140218,0.06140218,-0.00980914,-84.022843,73.225353)"
     clip-path="url(#clipPath26)" /><path
     d="m 75.492387,143.97537 q -1.312332,0 -2.031998,-0.71967 -0.677333,-0.762 -0.677333,-2.07433 v -24.63798 q 0,-1.35467 0.719666,-2.032 0.719666,-0.71966 2.031999,-0.71966 h 10.202325 q 4.910663,0 7.577661,2.45533 2.666998,2.45533 2.666998,6.85799 0,4.40267 -2.666998,6.90033 -2.666998,2.45533 -7.577661,2.45533 h -7.535327 v 8.72066 q 0,1.31233 -0.677333,2.07433 -0.677333,0.71967 -2.031999,0.71967 z m 2.709332,-15.79032 h 6.688661 q 2.878665,0 4.36033,-1.27 1.481666,-1.31233 1.481666,-3.81 0,-2.49766 -1.481666,-3.76766 -1.481665,-1.27 -4.36033,-1.27 h -6.688661 z m 30.056601,15.87499 q -3.21733,0 -5.588,-1.31234 -2.37066,-1.31233 -3.682996,-3.72533 -1.312332,-2.45533 -1.312332,-5.75733 0,-2.49766 0.719666,-4.44499 0.761999,-1.98967 2.159002,-3.38667 1.397,-1.43933 3.34433,-2.15899 1.94733,-0.762 4.36033,-0.762 3.21733,0 5.58799,1.31233 2.37067,1.31233 3.683,3.72533 1.31233,2.413 1.31233,5.71499 0,2.49767 -0.762,4.48733 -0.71966,1.98967 -2.11666,3.429 -1.397,1.397 -3.34433,2.159 -1.94733,0.71967 -4.36033,0.71967 z m 0,-4.02167 q 1.56633,0 2.75166,-0.762 1.18533,-0.762 1.82033,-2.24366 0.67734,-1.524 0.67734,-3.76767 0,-3.38666 -1.43934,-5.03766 -1.43933,-1.69333 -3.80999,-1.69333 -1.56634,0 -2.75167,0.762 -1.18533,0.71967 -1.86266,2.24366 -0.635,1.48167 -0.635,3.72533 0,3.34434 1.43933,5.08 1.43933,1.69333 3.81,1.69333 z m 17.65291,3.937 q -1.31233,0 -2.032,-0.67733 -0.67733,-0.71967 -0.67733,-2.032 v -16.00199 q 0,-1.31233 0.67733,-1.98966 0.67733,-0.67734 1.905,-0.67734 1.22767,0 1.905,0.67734 0.67733,0.67733 0.67733,1.98966 v 2.667 h -0.42333 q 0.59266,-2.54 2.32833,-3.85233 1.73566,-1.31233 4.61433,-1.56633 0.889,-0.0847 1.397,0.46566 0.55033,0.508 0.635,1.60867 0.0847,1.05833 -0.508,1.73566 -0.55033,0.635 -1.69333,0.762 l -0.93134,0.0847 q -2.58233,0.254 -3.89466,1.60866 -1.31233,1.31234 -1.31233,3.72534 v 8.76299 q 0,1.31233 -0.67734,2.032 -0.67733,0.67733 -1.98966,0.67733 z m 24.55324,0.0847 q -2.75166,0 -4.61433,-0.93134 -1.82033,-0.93133 -2.70933,-2.70933 -0.889,-1.82033 -0.889,-4.48733 v -9.01699 h -2.20133 q -1.016,0 -1.56633,-0.508 -0.55033,-0.55033 -0.55033,-1.48167 0,-0.97366 0.55033,-1.48166 0.55033,-0.508 1.56633,-0.508 h 2.20133 v -3.85233 q 0,-1.31233 0.67733,-1.98967 0.71967,-0.67733 1.98967,-0.67733 1.27,0 1.94733,0.67733 0.67733,0.67734 0.67733,1.98967 v 3.85233 h 4.48733 q 1.016,0 1.56634,0.508 0.55033,0.508 0.55033,1.48166 0,0.93134 -0.55033,1.48167 -0.55034,0.508 -1.56634,0.508 h -4.48733 v 8.72066 q 0,2.032 0.889,3.048 0.889,1.016 2.87867,1.016 0.71966,0 1.27,-0.127 0.55033,-0.127 0.97366,-0.16934 0.508,-0.0423 0.84667,0.33867 0.33867,0.33867 0.33867,1.43933 0,0.84667 -0.29634,1.524 -0.254,0.635 -0.97366,0.889 -0.55034,0.16933 -1.43934,0.29633 -0.88899,0.16934 -1.56633,0.16934 z m 13.58894,0 q -2.24366,0 -4.02166,-0.84667 -1.73567,-0.889 -2.75167,-2.37066 -0.97366,-1.48167 -0.97366,-3.34434 0,-2.28599 1.18533,-3.59833 1.18533,-1.35466 3.85233,-1.94733 2.667,-0.59266 7.15433,-0.59266 h 2.11666 v 3.04799 h -2.07433 q -2.62466,0 -4.191,0.254 -1.56633,0.254 -2.24366,0.889 -0.635,0.59267 -0.635,1.69333 0,1.397 0.97366,2.286 0.97367,0.889 2.70934,0.889 1.39699,0 2.45533,-0.635 1.10066,-0.67733 1.73566,-1.82033 0.635,-1.143 0.635,-2.62466 v -4.86833 q 0,-2.11667 -0.93133,-3.048 -0.93133,-0.93133 -3.13266,-0.93133 -1.22767,0 -2.667,0.29633 -1.397,0.29633 -2.96333,1.016 -0.80434,0.381 -1.43934,0.21167 -0.59266,-0.16934 -0.93133,-0.67734 -0.33867,-0.55033 -0.33867,-1.18533 0,-0.635 0.33867,-1.22767 0.33867,-0.635 1.143,-0.93133 1.94733,-0.80433 3.72533,-1.143 1.82033,-0.33866 3.302,-0.33866 3.048,0 4.99533,0.93133 1.98966,0.93133 2.96333,2.83633 0.97367,1.86267 0.97367,4.826 v 10.15999 q 0,1.31233 -0.635,2.032 -0.635,0.67733 -1.82034,0.67733 -1.18533,0 -1.86266,-0.67733 -0.635,-0.71967 -0.635,-2.032 v -2.032 h 0.33867 q -0.29634,1.48167 -1.18534,2.58233 -0.84666,1.05833 -2.159,1.651 -1.31233,0.59267 -3.00566,0.59267 z m 25.9926,7.61999 q -2.28599,0 -4.44499,-0.42333 -2.11667,-0.42334 -3.85233,-1.31233 -0.80434,-0.42334 -1.10067,-1.016 -0.254,-0.59267 -0.16933,-1.22767 0.127,-0.59267 0.508,-1.05833 0.42333,-0.46567 1.016,-0.635 0.59266,-0.16933 1.22766,0.16933 1.86267,0.93133 3.51367,1.18533 1.69333,0.29634 2.87866,0.29634 2.83633,0 4.23333,-1.397 1.43933,-1.35467 1.43933,-4.064 v -3.81 h 0.381 q -0.635,2.159 -2.66699,3.47133 -1.98967,1.27 -4.52967,1.27 -2.794,0 -4.86833,-1.27 -2.07433,-1.31233 -3.21733,-3.64066 -1.143,-2.32833 -1.143,-5.41866 0,-2.32833 0.635,-4.191 0.67733,-1.905 1.86267,-3.25966 1.22766,-1.35467 2.92099,-2.07433 1.73567,-0.762 3.81,-0.762 2.62467,0 4.572,1.31233 1.98966,1.27 2.58233,3.38666 l -0.42333,1.05834 v -3.00567 q 0,-1.31233 0.67733,-1.98966 0.71967,-0.67734 1.94733,-0.67734 1.27,0 1.94733,0.67734 0.67734,0.67733 0.67734,1.98966 v 16.29832 q 0,5.03766 -2.667,7.57766 -2.667,2.54 -7.747,2.54 z m -0.127,-12.57299 q 1.651,0 2.83634,-0.762 1.18533,-0.762 1.82033,-2.159 0.67733,-1.43933 0.67733,-3.38666 0,-2.921 -1.43933,-4.572 -1.43933,-1.69333 -3.89467,-1.69333 -1.65099,0 -2.83633,0.762 -1.18533,0.762 -1.86266,2.159 -0.635,1.397 -0.635,3.34433 0,2.921 1.43933,4.61433 1.43933,1.69333 3.89466,1.69333 z m 26.24657,4.953 q -3.51366,0 -6.05366,-1.31234 -2.54,-1.31233 -3.937,-3.72533 -1.35466,-2.41299 -1.35466,-5.71499 0,-3.21733 1.31233,-5.63033 1.35467,-2.413 3.683,-3.76767 2.37066,-1.39699 5.37633,-1.39699 2.20133,0 3.937,0.71966 1.77799,0.71967 3.00566,2.07433 1.27,1.35467 1.905,3.302 0.67733,1.905 0.67733,4.318 0,0.762 -0.55033,1.18533 -0.508,0.381 -1.48167,0.381 h -13.58899 v -3.048 h 11.89566 l -0.67733,0.635 q 0,-1.94733 -0.59267,-3.25966 -0.55033,-1.31233 -1.651,-1.98967 -1.05833,-0.71966 -2.667,-0.71966 -1.77799,0 -3.04799,0.84666 -1.22767,0.80434 -1.905,2.32833 -0.635,1.48167 -0.635,3.556 v 0.29633 q 0,3.47134 1.60866,5.207 1.651,1.69333 4.826,1.69333 1.10067,0 2.45533,-0.254 1.397,-0.29633 2.62467,-0.97366 0.889,-0.508 1.56633,-0.42334 0.67733,0.0423 1.05833,0.46567 0.42333,0.42333 0.508,1.05833 0.0847,0.59267 -0.254,1.22767 -0.29633,0.635 -1.05833,1.10066 -1.48167,0.93134 -3.429,1.397 -1.905,0.42334 -3.556,0.42334 z"
     id="text7"
     style="font-size:42.3333px;font-family:Nunito;-inkscape-font-specification:'Nunito, @wght=700';font-variation-settings:'wght' 700;fill:#6c6c6c;fill-rule:evenodd;stroke-width:4.99999;paint-order:markers fill stroke"
     aria-label="Portage" /><rect
     style="font-variation-settings:'wght' 700;fill:#6c6c6c;fill-opacity:1;fill-rule:evenodd;stroke-width:20;paint-order:markers fill stroke"
     id="rect16"
     width="1.9645224"
     height="1.4578619"
     x="88.32354"
     y="93.49131" /><rect
     style="font-variation-settings:'wght' 700;fill:#6c6c6c;fill-opacity:1;fill-rule:evenodd;stroke-width:20;paint-order:markers fill stroke"
     id="rect17"
     width="2.3414402"
     height="2.5347409"
     x="99.492027"
     y="80.359154" /><rect
     style="font-variation-settings:'wght' 700;fill:#6c6c6c;fill-opacity:1;fill-rule:evenodd;stroke-width:20.3375;paint-order:markers fill stroke"
     id="rect18"
     width="2.496099"
     height="3.2834609"
     x="115.77477"
     y="91.455254" /><rect
     style="font-variation-settings:'wght' 700;fill:#6c6c6c;fill-opacity:1;fill-rule:evenodd;stroke-width:20;paint-order:markers fill stroke"
     id="rect1"
     width="2.7130444"
     height="2.252424"
     x="76.647369"
     y="80.730194" /><rect
     style="font-variation-settings:'wght' 700;fill:#6c6c6c;fill-opacity:1;fill-rule:evenodd;stroke-width:20;paint-order:markers fill stroke"
     id="rect2"
     width="1.1663934"
     height="2.4150126"
     x="141.84547"
     y="85.714859" /><rect
     style="font-variation-settings:'wght' 700;fill:#6c6c6c;fill-opacity:1;fill-rule:evenodd;stroke-width:20;paint-order:markers fill stroke"
     id="rect3"
     width="1.5319215"
     height="2.8967395"
     x="178.29974"
     y="98.429092" /><rect
     style="font-variation-settings:'wght' 700;fill:#6c6c6c;fill-opacity:1;fill-rule:evenodd;stroke-width:20;paint-order:markers fill stroke"
     id="rect4"
     width="0.94178313"
     height="4.2751017"
     x="115.3545"
     y="91.018768" /><rect
     style="font-variation-settings:'wght' 700;fill:#6c6c6c;fill-opacity:1;fill-rule:evenodd;stroke-width:20;paint-order:markers fill stroke"
     id="rect5"
     width="1.0209047"
     height="1.6682677"
     x="127.55078"
     y="91.252571" /><rect
     style="font-variation-settings:'wght' 700;fill:#6c6c6c;fill-opacity:1;fill-rule:evenodd;stroke-width:20;paint-order:markers fill stroke"
     id="rect6"
     width="2.4025402"
     height="1.7270727"
     x="127.2589"
     y="126.58276" /><rect
     style="font-variation-settings:'wght' 700;fill:#6c6c6c;fill-opacity:1;fill-rule:evenodd;stroke-width:20;paint-order:markers fill stroke"
     id="rect7"
     width="0.80656552"
     height="3.8547759"
     x="169.98051"
     y="130.65825" /><rect
     style="font-variation-settings:'wght' 700;fill:#6c6c6c;fill-opacity:1;fill-rule:evenodd;stroke-width:20;paint-order:markers fill stroke"
     id="rect8"
     width="2.7929559"
     height="3.0212345"
     x="168.96442"
     y="131.37244" /><rect
     style="font-variation-settings:'wght' 700;fill:#6c6c6c;fill-opacity:1;fill-rule:evenodd;stroke-width:20;paint-order:markers fill stroke"
     id="rect9"
     width="1.1833804"
     height="1.608447"
     x="169.65308"
     y="138.77988" /><rect
     style="font-variation-settings:'wght' 700;fill:#6c6c6c;fill-opacity:1;fill-rule:evenodd;stroke-width:20;paint-order:markers fill stroke"
     id="rect10"
     width="1.1250268"
     height="2.3229108"
     x="194.82727"
     y="126.10182" /><rect
     style="font-variation-settings:'wght' 700;fill:#6c6c6c;fill-opacity:1;fill-rule:evenodd;stroke-width:20;paint-order:markers fill stroke"
     id="rect11"
     width="1.1643618"
     height="1.5525202"
     x="195.05675"
     y="137.82593" /><rect
     style="font-variation-settings:'wght' 700;fill:#6c6c6c;fill-opacity:1;fill-rule:evenodd;stroke-width:20;paint-order:markers fill stroke"
     id="rect12"
     width="1.2518357"
     height="1.3603033"
     x="220.28748"
     y="131.23456" /><rect
     style="font-variation-settings:'wght' 700;fill:#6c6c6c;fill-opacity:1;fill-rule:evenodd;stroke-width:20.3988;paint-order:markers fill stroke"
     id="rect13"
     width="1.4195598"
     height="3.9998131"
     x="208.49364"
     y="131.0322" /><rect
     style="font-variation-settings:'wght' 700;fill:#6c6c6c;fill-opacity:1;fill-rule:evenodd;stroke-width:20;paint-order:markers fill stroke"
     id="rect14"
     width="1.2404358"
     height="0.17658435"
     x="209.1543"
     y="134.30003" /><rect
     style="font-variation-settings:'wght' 700;fill:#6c6c6c;fill-opacity:1;fill-rule:evenodd;stroke-width:20;paint-order:markers fill stroke"
     id="rect15"
     width="1.8547846"
     height="0.55588233"
     x="209.02304"
     y="131.49156" /></svg>
